<?xml version="1.0" encoding="utf-8"?>
<!-- Generator: Adobe Illustrator 26.0.1, SVG Export Plug-In . SVG Version: 6.00 Build 0)  -->
<svg version="1.1" id="Layer_1" xmlns="http://www.w3.org/2000/svg" xmlns:xlink="http://www.w3.org/1999/xlink" x="0px" y="0px"
	 viewBox="0 0 22 22" style="enable-background:new 0 0 22 22;" xml:space="preserve">
<style type="text/css">
	.st0{fill:#F5F5F5;}
</style>
<path class="st0" d="M21.1,8.7c0.2-0.2,0.3-0.4,0.4-0.7c-1.2-4.5-5.2-7.8-10.1-7.8C5.6,0.2,1,4.9,1,10.6c0,2.2,0.7,4.2,1.8,5.9
	c0.2,0.1,0.3,0.1,0.5,0.1c0.4,0,0.7,0,1.1-0.1c0.5-0.1,0.7-0.3,0.7-0.8c0-0.4,0-0.9,0-1.3c0-1.4,0-2.8,0-4.2c0-0.6,0.3-1,0.9-1
	c0.5,0,0.9,0,1.4,0c0.3,0,0.7,0.1,0.8,0.4c0.1,0.2,0.2,0.5,0.2,0.7c0,1.7,0,3.3,0,5c0,0.1,0,0.3,0,0.4c1.1-0.1,1.2-0.4,1.2-1.2
	c0-2,0-3.9,0-5.9c0-0.3,0-0.5,0-0.8c0-0.6,0.4-1,1-1c0.4,0,0.8,0,1.2,0C12.6,6.9,13,7.2,13,8c0,2,0,3.9,0,5.9c0,0.1,0,0.3,0,0.5
	c0.3-0.1,0.5-0.2,0.7-0.3c0.3-0.1,0.5-0.4,0.5-0.7c0-0.1,0-0.3,0-0.4c0-2.4,0-4.9,0-7.3c0-0.6,0.4-1,1-1c0.5,0,0.9,0,1.3,0
	c0.3,0,0.6,0.1,0.8,0.4c0.1,0.2,0.2,0.5,0.2,0.7c0,1.9,0,3.8,0,5.8c0,0.1,0,0.3,0.1,0.5c0.4-0.3,0.8-0.6,1.1-0.9
	C19.6,10.4,20.4,9.6,21.1,8.7z"/>
<path class="st0" d="M21.8,10.6c0-0.1,0-0.2,0-0.4c-1.5,2.1-3.4,3.8-5.6,5.1C13.7,17,10.9,18,8,18.7c-0.8,0.2-1.6,0.3-2.5,0.5
	c1.7,1.1,3.7,1.8,5.9,1.8C17.2,21,21.8,16.4,21.8,10.6z"/>
</svg>
