<svg width="68" height="49" viewBox="0 0 68 49" fill="none" xmlns="http://www.w3.org/2000/svg">
<path d="M18.2395 48.657C18.2395 48.657 20.3534 46.044 22.0759 43.8665C14.7945 41.6495 12.0542 37.0174 12.0542 37.0174C12.0542 37.0174 12.6414 37.4133 13.6592 38.0072C13.6984 38.0468 13.7767 38.1259 13.8941 38.1655C14.0507 38.2843 14.2464 38.3239 14.403 38.4427C15.8515 39.2345 17.2608 39.9075 18.5918 40.4222C20.9406 41.3328 23.7592 42.2829 27.0085 42.9164C31.3147 43.7082 36.3255 44.0249 41.8453 42.956C44.5465 42.4809 47.2868 41.6891 50.1446 40.4618C52.1411 39.7096 54.3725 38.601 56.7213 37.057C56.7213 37.057 53.8636 41.8078 46.3473 43.9457C48.0697 46.1628 50.1446 48.6174 50.1446 48.6174C62.7892 48.2215 67.6826 39.8283 67.6826 39.8283C67.6826 21.1812 59.4225 6.0577 59.4225 6.0577C51.1624 -0.157989 43.3329 0.000372272 43.3329 0.000372272L42.55 0.910952C52.2977 3.91982 56.7996 8.27477 56.7996 8.27477C50.8492 4.98876 45.0163 3.36556 39.5748 2.73211C35.4251 2.25703 31.4713 2.3758 27.9871 2.85088C27.6348 2.85088 27.3608 2.89047 27.0085 2.96965C25.0119 3.12801 20.1185 3.88023 14.0115 6.61197C11.8976 7.60173 10.6449 8.27477 10.6449 8.27477C10.6449 8.27477 15.3817 3.72187 25.6775 0.713L25.1294 0.000372272C25.1294 0.000372272 17.2999 -0.15799 9.03982 6.0973C9.03982 6.0973 0.779724 21.2208 0.779724 39.8679C0.779724 39.8283 5.59485 48.2611 18.2395 48.657ZM44.429 21.6167C47.6783 21.6167 50.262 24.5068 50.262 28.0304C50.262 31.5539 47.6783 34.444 44.429 34.444C41.219 34.444 38.5961 31.5539 38.5961 28.0304C38.5569 24.5068 41.1407 21.6167 44.429 21.6167ZM23.5243 21.6167C26.7736 21.6167 29.4356 24.5068 29.3573 28.0304C29.3573 31.5539 26.7736 34.444 23.5243 34.444C20.3143 34.444 17.6914 31.5539 17.6914 28.0304C17.6914 24.5068 20.236 21.6167 23.5243 21.6167Z" fill="#BFA084"/>
</svg>
