<svg width="58" height="47" viewBox="0 0 58 47" fill="none" xmlns="http://www.w3.org/2000/svg">
<path d="M57.7797 5.6298C55.7162 6.51872 53.3578 7.11135 50.9995 7.40766C53.3578 5.92612 55.4214 3.55568 56.3058 0.888928C53.9474 2.37046 51.5891 3.25938 48.6411 3.85199C46.5776 1.48154 43.3348 0 40.092 0C33.6066 0 28.3003 5.33351 28.3003 11.8522C28.3003 12.7412 28.3003 13.6301 28.5951 14.519C18.8668 13.9264 10.023 9.18548 4.12711 2.07413C3.24272 3.85197 2.65313 5.92612 2.65313 8.00026C2.65313 12.1485 4.71671 15.7042 7.95945 17.7784C5.89588 17.7784 4.12711 17.1858 2.65313 16.2968C2.65313 21.9267 6.78025 26.9638 12.0866 27.8528C11.2022 28.1491 10.023 28.1491 8.84384 28.1491C7.95946 28.1491 7.36986 28.1491 6.48547 27.8528C7.95945 32.5937 12.3814 36.1493 17.6877 36.1493C13.5606 39.4087 8.54904 41.1865 2.94795 41.1865C2.06356 41.1865 1.17918 41.1866 0 40.8903C5.3063 44.1496 11.497 46.2238 18.2773 46.2238C40.0921 46.2238 51.8838 28.1491 51.8838 12.4449V10.9633C54.2422 10.0744 56.3058 8.00025 57.7797 5.6298Z" fill="#BFA084"/>
</svg>
