<?xml version="1.0" encoding="utf-8"?>
<!-- Generator: Adobe Illustrator 26.0.1, SVG Export Plug-In . SVG Version: 6.00 Build 0)  -->
<svg version="1.1" id="Layer_1" xmlns="http://www.w3.org/2000/svg" xmlns:xlink="http://www.w3.org/1999/xlink" x="0px" y="0px"
	 viewBox="0 0 29 23" style="enable-background:new 0 0 29 23;" xml:space="preserve">
<style type="text/css">
	.st0{fill:#F5F5F5;}
</style>
<path class="st0" d="M7.6,22c0,0,0.9-1.1,1.7-2.1c-3.2-1-4.3-3-4.3-3s0.3,0.2,0.7,0.4c0,0,0.1,0.1,0.1,0.1c0.1,0.1,0.2,0.1,0.2,0.1
	c0.6,0.3,1.2,0.6,1.8,0.9c1,0.4,2.2,0.8,3.6,1.1c1.9,0.3,4,0.5,6.4,0c1.2-0.2,2.4-0.5,3.6-1.1c0.9-0.3,1.8-0.8,2.9-1.5
	c0,0-1.2,2.1-4.5,3c0.7,1,1.6,2,1.6,2c5.5-0.2,7.6-3.8,7.6-3.8c0-8.1-3.6-14.6-3.6-14.6c-3.6-2.7-7-2.6-7-2.6l-0.3,0.4
	c4.2,1.3,6.2,3.2,6.2,3.2c-2.6-1.4-5.1-2.1-7.5-2.4c-1.8-0.2-3.5-0.2-5,0.1c-0.2,0-0.3,0-0.4,0.1c-0.9,0.1-3,0.4-5.6,1.6
	C4.8,4.3,4.3,4.5,4.3,4.5s2.1-2,6.5-3.3L10.6,1c0,0-3.4-0.1-7,2.6c0,0-3.6,6.6-3.6,14.6C0,18.2,2.1,21.9,7.6,22z M18.9,10.3
	c1.4,0,2.5,1.3,2.5,2.8s-1.1,2.8-2.5,2.8c-1.4,0-2.5-1.3-2.5-2.8C16.4,11.6,17.5,10.3,18.9,10.3z M9.9,10.3c1.4,0,2.6,1.3,2.5,2.8
	c0,1.5-1.1,2.8-2.5,2.8c-1.4,0-2.5-1.3-2.5-2.8S8.4,10.3,9.9,10.3z"/>
</svg>
