<svg width="180" height="42" viewBox="0 0 180 42" fill="none" xmlns="http://www.w3.org/2000/svg">
<g clip-path="url(#clip0_1004_6079)">
<path d="M156.912 17.1593L163.542 11.3415L161.552 0.5L132.238 0.564822L131.884 1.13202L131.82 0.564822L102.474 0.629644L101.029 7.30632L90.2408 7.32253L90 11.5684H87.6722L87.5598 7.32253L75.4552 7.33874L63.8002 7.35494L63.7841 7.41976L63.7681 7.35494L52.2575 7.37115L52.0648 9.75336L50.7003 7.37115L43.9095 7.38735L43.9255 7.2253L39.575 0.775494L10.3089 0.824111L5.78169 24.1763L7.62787 25.3593H5.55693L3.19702 37.481L11.0634 41.1921L40.0245 41.2569L40.1047 40.5763L40.9877 41.2569L51.7759 41.2731L51.9203 39.5715L53.5257 41.2731L64.5386 41.3055L64.5547 40.9976L64.7313 41.3055L75.9047 41.3217V41.0949L75.985 41.3217L87.624 41.3542L87.6401 36.93H90.0642L90.1124 41.3542L101.719 41.3866L102.217 39.9767L102.265 41.3866L116.103 41.419L119.282 37.2542L118.704 29.0217H130.006L134.357 23.9656L133.618 17.1755H136.54L139.526 41.4676L153.091 41.5L159.979 37.7079L156.607 17.1593H156.912Z" fill="black"/>
<path d="M37.6646 11.0498L41.3409 15.7818L42.2559 7.8087L38.7241 2.55811L37.6646 11.0498Z" fill="#28262B"/>
<path d="M20.7599 14.4368L25.7045 18.9581L26.1861 15.7818L21.3218 11.066L20.7599 14.4368Z" fill="#28262B"/>
<path d="M34.4537 36.768L38.5956 39.7822L40.9876 18.9419L37.2471 14.4205L34.4537 36.768Z" fill="#28262B"/>
<path d="M49.127 15.9924L52.0006 20.4327L52.5625 14.0153L49.7852 9.15369L49.127 15.9924Z" fill="#28262B"/>
<path d="M62.0824 18.4233L64.0089 22.7016L64.5066 14.0154L62.6603 9.13757L62.0824 18.4233Z" fill="#28262B"/>
<path d="M61.1994 22.7016L59.0482 18.4233L58.8716 21L61.0388 25.1162L61.1994 22.7016Z" fill="#28262B"/>
<path d="M55.8054 24.0304L58.2135 27.936L58.4222 25.1162L56.0302 21L55.8054 24.0304Z" fill="#28262B"/>
<path d="M58.4703 26.6719L60.7018 30.4154L60.8623 27.9359L58.6469 24.0304L58.4703 26.6719Z" fill="#28262B"/>
<path d="M47.1523 36.7842L50.3149 39.8146L50.925 32.7814L47.8748 29.2324L47.1523 36.7842Z" fill="#28262B"/>
<path d="M60.9265 36.8166L63.0135 39.847L63.5593 30.4154L61.5526 26.6881L60.9265 36.8166Z" fill="#28262B"/>
<path d="M73.2078 36.8328L74.3476 39.8632L75.1663 13.9992L74.1549 9.12134L73.2078 36.8328Z" fill="#28262B"/>
<path d="M129.846 7.66283L130.696 15.717L134.116 10.9201L133.137 2.34741L129.846 7.66283Z" fill="#28262B"/>
<path d="M141.966 10.9202L137.953 15.717L140.939 40.0091L145.466 36.9787L141.966 10.9202Z" fill="#28262B"/>
<path d="M102.618 7.71144L103.806 39.928L105.155 36.8976L103.758 2.41223L102.618 7.71144Z" fill="#28262B"/>
<path d="M85.9866 13.351L86.115 17.9695L86.1311 13.983L86.0026 9.1051L85.9866 13.351Z" fill="#28262B"/>
<path d="M91.7499 9.1051L91.4769 13.983L91.5411 22.1992L91.8462 17.8723L91.7499 9.1051Z" fill="#28262B"/>
<path d="M88.218 30.9826V35.4715L88.2501 32.1007V27.2715L88.218 30.9826Z" fill="#28262B"/>
<path d="M85.8741 36.8652L86.0186 39.8956L86.0668 30.9826L85.9223 27.2715L85.8741 36.8652Z" fill="#28262B"/>
<path d="M91.6696 35.4877L91.7017 39.9118L92.0228 36.8652L91.9746 32.1169L91.6696 35.4877Z" fill="#28262B"/>
<path d="M41.341 15.7818L37.6647 11.0498L21.3219 11.066L26.1862 15.7818H41.341Z" fill="#3C3A3F"/>
<path d="M29.1561 27.4984L24.3721 23.5766L7.56372 23.5604L13.6 27.4822L29.1561 27.4984Z" fill="#3C3A3F"/>
<path d="M5.02722 36.7194L11.4166 39.7336L38.5957 39.7822L34.4539 36.768L5.02722 36.7194Z" fill="#3C3A3F"/>
<path d="M64.009 22.7015L62.0825 18.4232H59.0483L61.1996 22.7015H64.009Z" fill="#3C3A3F"/>
<path d="M61.039 25.1162L58.8717 21H56.0302L58.4222 25.1162H61.039Z" fill="#3C3A3F"/>
<path d="M52.2094 32.7975L49.2555 29.2323H47.8749L50.9251 32.7813L52.2094 32.7975Z" fill="#3C3A3F"/>
<path d="M48.8862 33.2028L51.8883 36.4763L54.473 36.4925L51.6796 33.2028H48.8862Z" fill="#3C3A3F"/>
<path d="M37.6326 36.7679L41.5336 39.7984L50.3151 39.8146L47.1525 36.7841L37.6326 36.7679Z" fill="#3C3A3F"/>
<path d="M51.3745 36.8003L54.216 39.8145L63.0135 39.8469L60.9265 36.8165L51.3745 36.8003Z" fill="#3C3A3F"/>
<path d="M63.7521 36.8165L65.6304 39.847L74.3476 39.8632L73.2078 36.8327L63.7521 36.8165Z" fill="#3C3A3F"/>
<path d="M134.116 10.9202L130.697 15.717H137.953L141.966 10.9202H134.116Z" fill="#3C3A3F"/>
<path d="M161.793 10.8877L153.926 10.9039L149.03 15.7169L156.318 15.7007L161.793 10.8877Z" fill="#3C3A3F"/>
<path d="M140.939 40.0091L152.69 40.0415L158.213 36.9948L145.466 36.9786L140.939 40.0091Z" fill="#3C3A3F"/>
<path d="M131.323 10.9363L115.975 10.9525L113.888 15.7331L128.096 15.7169L131.323 10.9363Z" fill="#3C3A3F"/>
<path d="M114.514 27.5631H129.268L132.687 23.5928H116.714L114.514 27.5631Z" fill="#3C3A3F"/>
<path d="M103.806 39.928L115.317 39.9604L117.645 36.9138L105.155 36.8976L103.806 39.928Z" fill="#3C3A3F"/>
<path d="M85.9224 27.2715L86.0669 30.9826H88.2181L88.2502 27.2715H85.9224Z" fill="#3C3A3F"/>
<path d="M88.2501 32.1007L88.218 35.4714L91.6696 35.4876L91.9746 32.1169L88.2501 32.1007Z" fill="#3C3A3F"/>
<path d="M76.274 36.849L77.1731 39.8794L86.0187 39.8956L85.8742 36.8652L76.274 36.849Z" fill="#3C3A3F"/>
<path d="M91.7018 39.9117L100.58 39.928L101.655 36.8975L92.0229 36.8651L91.7018 39.9117Z" fill="#3C3A3F"/>
<path d="M38.7241 2.55809L37.6646 11.0498L21.3057 11.066L20.7599 14.4367L37.2472 14.4205L34.4538 36.768L5.01111 36.7194L6.8573 27.1581L23.8101 27.1743L24.356 23.5767H7.54761L11.6253 2.6067L38.7241 2.55809ZM53.7344 9.15374L53.4615 12.3462H50.7966L50.4595 15.9925H49.1109L49.7691 9.15374L40.8753 9.16994L37.6325 36.768L47.1524 36.7842L47.8748 29.2324H49.2554L48.8862 33.2028H51.6795L51.3745 36.7842L60.9105 36.8004L61.5526 26.6719H58.4543L58.6469 24.0304H55.7893L56.0301 21H58.8556L59.0322 18.4233H62.0664L62.6443 9.13753L53.7344 9.15374ZM65.3092 9.13753L63.752 36.8166L73.2077 36.8328L74.1549 9.12133L65.3092 9.13753ZM133.137 2.34741L134.132 10.9363L141.966 10.9201L145.466 36.9786L158.213 36.9948L153.926 10.9039L161.793 10.8877L160.219 2.28259L133.137 2.34741ZM103.758 2.41224L105.155 36.8976L117.629 36.9138L116.697 23.5929H132.671L131.676 14.3395L116.2 14.3557L115.959 10.9526L131.306 10.9363L130.375 2.36362L103.758 2.41224ZM91.7499 9.10512L91.8301 17.8723H89.5826L89.5665 13.351H85.9705L85.9865 9.10512L77.0125 9.12133L76.274 36.849L85.8742 36.8652L85.9223 27.2877H88.2501V32.117H91.9746L92.0228 36.8814L101.655 36.8976L100.772 9.08892L91.7499 9.10512Z" fill="white"/>
<path d="M100.451 9.41296L91.766 9.42917L91.8463 17.8722H91.5091L91.5252 18.1964H89.2777L89.2616 13.675H85.6655L85.6816 9.42917L77.0125 9.44538L76.274 36.8489L85.5532 36.8651L85.6013 27.5956H85.9224V27.2715H88.2502V32.1007L91.9747 32.1169L92.0229 36.8651L101.334 36.8813L100.451 9.41296Z" fill="url(#paint0_linear_1004_6079)"/>
<path d="M133.169 2.67151L134.116 10.9201H141.966L145.466 36.9786L157.843 36.9948L153.605 11.228H153.974L153.926 10.9039L161.423 10.8877L159.898 2.60669L133.169 2.67151Z" fill="url(#paint1_linear_1004_6079)"/>
<path d="M130.07 2.67151L103.774 2.73633L105.155 36.8976L117.291 36.9138L116.392 23.917H116.73L116.714 23.5929H132.334L131.371 14.6636L115.895 14.6798L115.654 11.2766H115.991L115.975 10.9525L130.953 10.9363L130.07 2.67151Z" fill="url(#paint2_linear_1004_6079)"/>
<path d="M37.3917 11.0498L38.4031 2.8822L11.5611 2.93082L7.56372 23.5605L24.3721 23.5767L23.8262 27.1581H23.5533L23.5052 27.4822L6.80919 27.466L5.02722 36.7193L34.1809 36.768L36.9261 14.7446L20.4389 14.7609L21.0008 11.3901H21.2576L21.3218 11.066L37.3917 11.0498Z" fill="url(#paint3_linear_1004_6079)"/>
<path d="M62.3394 9.46167L53.7024 9.47788L53.4616 12.3463H53.1727L53.1406 12.6704H50.7806L50.4756 15.9925H50.1706L50.1545 16.3166H48.806L49.4642 9.47788L40.8433 9.49408L37.6326 36.768L46.8635 36.7842L47.5538 29.5565H47.8428L47.8749 29.2324H49.2555L48.8863 33.2028H51.6797L51.3746 36.8004L60.6216 36.8166L61.2317 27.0123L58.1493 26.9961L58.3259 24.3546H55.4844L55.7092 21.3241H56.0142L56.0302 21H58.5667L58.7273 18.7474H59.0162L59.0484 18.4233H61.7775L62.3394 9.46167Z" fill="url(#paint4_linear_1004_6079)"/>
<path d="M63.7521 36.8166L72.9028 36.8328L73.8339 9.44543L65.2932 9.46164L63.7521 36.8166Z" fill="url(#paint5_linear_1004_6079)"/>
</g>
<defs>
<linearGradient id="paint0_linear_1004_6079" x1="88.801" y1="9.40979" x2="88.801" y2="36.889" gradientUnits="userSpaceOnUse">
<stop stop-color="#D5CCC7"/>
<stop offset="1" stop-color="#A9A29C"/>
</linearGradient>
<linearGradient id="paint1_linear_1004_6079" x1="147.295" y1="2.6097" x2="147.295" y2="36.9934" gradientUnits="userSpaceOnUse">
<stop stop-color="#D5CCC7"/>
<stop offset="1" stop-color="#A9A29C"/>
</linearGradient>
<linearGradient id="paint2_linear_1004_6079" x1="118.054" y1="2.67522" x2="118.054" y2="36.9186" gradientUnits="userSpaceOnUse">
<stop stop-color="#D5CCC7"/>
<stop offset="1" stop-color="#A9A29C"/>
</linearGradient>
<linearGradient id="paint3_linear_1004_6079" x1="21.7151" y1="2.87656" x2="21.7151" y2="36.7651" gradientUnits="userSpaceOnUse">
<stop stop-color="#D5CCC7"/>
<stop offset="1" stop-color="#A9A29C"/>
</linearGradient>
<linearGradient id="paint4_linear_1004_6079" x1="49.9905" y1="9.46376" x2="49.9905" y2="36.814" gradientUnits="userSpaceOnUse">
<stop stop-color="#D5CCC7"/>
<stop offset="1" stop-color="#A9A29C"/>
</linearGradient>
<linearGradient id="paint5_linear_1004_6079" x1="68.7927" y1="9.44748" x2="68.7927" y2="36.8366" gradientUnits="userSpaceOnUse">
<stop stop-color="#D5CCC7"/>
<stop offset="1" stop-color="#A9A29C"/>
</linearGradient>
<clipPath id="clip0_1004_6079">
<rect width="179" height="41" fill="white" transform="translate(0.5 0.5)"/>
</clipPath>
</defs>
</svg>
